<svg aria-hidden="true" style="position: absolute; width: 0; height: 0; overflow: hidden;" version="1.1" xmlns="http://www.w3.org/2000/svg" xmlns:xlink="http://www.w3.org/1999/xlink">
<defs>
<symbol id="icon-Logo" viewBox="0 0 80 32">
<path fill="#f0145a" style="fill: var(--color1, #f0145a)" d="M1.484 8.421h-1.484v10.719h1.484v-3.977c0-0.673 0.167-1.203 0.502-1.577s0.793-0.568 1.36-0.568c0.487 0 0.895 0.179 1.222 0.523 0.327 0.351 0.495 0.792 0.495 1.323v4.283h1.491v-4.283c0-0.987-0.269-1.764-0.808-2.347s-1.244-0.875-2.103-0.875c-0.247 0-0.495 0.030-0.735 0.097-0.247 0.067-0.444 0.142-0.604 0.224s-0.313 0.172-0.451 0.277-0.233 0.179-0.276 0.224c-0.044 0.045-0.080 0.075-0.095 0.097v-4.141z"></path>
<path fill="#fff" style="fill: var(--color2, #fff)" d="M9.873 8.421h-1.53v10.71h1.53v-10.71z"></path>
<path fill="#fff" style="fill: var(--color2, #fff)" d="M18.897 15.994l0.076-0.765c0-1.025-0.337-1.882-1.025-2.57s-1.545-1.025-2.57-1.025-1.912 0.367-2.647 1.102c-0.734 0.734-1.102 1.606-1.102 2.647 0 1.071 0.383 1.989 1.132 2.754s1.652 1.147 2.693 1.147c0.398 0 0.765-0.061 1.132-0.168 0.367-0.122 0.673-0.245 0.887-0.367 0.23-0.138 0.459-0.291 0.658-0.459s0.337-0.291 0.398-0.367c0.061-0.076 0.107-0.122 0.138-0.168l-0.994-0.994-0.23 0.291c-0.153 0.184-0.413 0.367-0.78 0.566-0.382 0.199-0.78 0.291-1.209 0.291-0.597 0-1.102-0.184-1.53-0.566s-0.688-0.826-0.765-1.346h5.737zM15.378 12.934c0.566 0 1.025 0.168 1.408 0.49 0.367 0.337 0.597 0.75 0.689 1.27h-4.253c0.138-0.52 0.382-0.933 0.765-1.27 0.367-0.321 0.841-0.49 1.392-0.49z"></path>
<path fill="#fff" style="fill: var(--color2, #fff)" d="M26.032 18.687c0 0.673-0.199 1.224-0.612 1.652-0.398 0.413-0.903 0.627-1.53 0.627-0.275 0-0.551-0.046-0.811-0.122s-0.459-0.168-0.627-0.275c-0.168-0.107-0.321-0.214-0.474-0.352-0.138-0.138-0.229-0.23-0.275-0.275s-0.077-0.092-0.107-0.122l-0.994 0.994 0.122 0.153c0.077 0.107 0.214 0.245 0.398 0.398 0.184 0.138 0.398 0.291 0.643 0.444 0.245 0.138 0.551 0.26 0.933 0.367s0.78 0.168 1.193 0.168c1.040 0 1.897-0.352 2.616-1.056 0.704-0.719 1.056-1.576 1.056-2.616v-6.885h-1.53v0.765l-0.26-0.229c-0.168-0.153-0.428-0.306-0.796-0.459s-0.765-0.229-1.163-0.229c-0.933 0-1.729 0.352-2.417 1.071s-1.025 1.576-1.025 2.601c0 1.025 0.337 1.882 1.025 2.601s1.484 1.071 2.417 1.071c0.26 0 0.505-0.031 0.765-0.092 0.245-0.076 0.444-0.153 0.612-0.23s0.321-0.168 0.459-0.275c0.138-0.107 0.245-0.184 0.275-0.214l0.107-0.107v0.627zM21.901 15.306c0-0.643 0.199-1.178 0.612-1.622s0.903-0.673 1.453-0.673c0.551 0 1.040 0.229 1.453 0.673 0.398 0.444 0.612 0.979 0.612 1.622s-0.214 1.178-0.612 1.622c-0.413 0.444-0.903 0.673-1.453 0.673s-1.040-0.23-1.453-0.673-0.612-0.979-0.612-1.622z"></path>
<path fill="#fff" style="fill: var(--color2, #fff)" d="M35.548 19.131v-4.743c0-0.78-0.291-1.438-0.857-1.958-0.566-0.536-1.3-0.796-2.203-0.796-0.352 0-0.704 0.046-1.040 0.138-0.337 0.107-0.612 0.214-0.811 0.337s-0.398 0.26-0.581 0.428c-0.184 0.153-0.291 0.26-0.352 0.321-0.046 0.061-0.092 0.107-0.122 0.153l0.994 0.994 0.199-0.26c0.122-0.168 0.337-0.321 0.658-0.49s0.673-0.245 1.056-0.245c0.444 0 0.811 0.138 1.102 0.398s0.428 0.597 0.428 0.979l-2.677 0.459c-0.658 0.107-1.193 0.367-1.561 0.78-0.383 0.413-0.581 0.918-0.581 1.515 0 0.566 0.245 1.056 0.734 1.484 0.505 0.444 1.117 0.658 1.867 0.658 0.26 0 0.505-0.031 0.75-0.107 0.26-0.061 0.459-0.138 0.627-0.214s0.321-0.168 0.459-0.275c0.138-0.107 0.23-0.184 0.291-0.214 0.046-0.046 0.076-0.092 0.092-0.107v0.765h1.53zM32.029 17.907c-0.398 0-0.719-0.092-0.949-0.275-0.245-0.184-0.352-0.398-0.352-0.643 0-0.26 0.077-0.49 0.245-0.658s0.398-0.291 0.673-0.337l2.371-0.382v0.153c0 0.689-0.168 1.209-0.52 1.591-0.352 0.367-0.842 0.551-1.469 0.551z"></path>
<path fill="#fff" style="fill: var(--color2, #fff)" d="M38.924 8.421h-1.53v10.71h1.53v-10.71z"></path>
<path fill="#fff" style="fill: var(--color2, #fff)" d="M0 24.326h0.479v1.679h1.037v0.39h-1.516v-2.069z"></path>
<path fill="#fff" style="fill: var(--color2, #fff)" d="M4.641 25.952h-0.961l-0.183 0.443h-0.491l0.922-2.069h0.473l0.925 2.069h-0.502l-0.183-0.443zM4.491 25.588l-0.328-0.792-0.328 0.792h0.656z"></path>
<path fill="#fff" style="fill: var(--color2, #fff)" d="M10.034 24.326l-0.677 2.069h-0.514l-0.455-1.401-0.47 1.401h-0.511l-0.68-2.069h0.497l0.467 1.454 0.488-1.454h0.443l0.473 1.466 0.482-1.466h0.458z"></path>
<path fill="#fff" style="fill: var(--color2, #fff)" d="M15.127 26.43c-0.211 0-0.402-0.045-0.573-0.136-0.169-0.093-0.303-0.22-0.402-0.381-0.097-0.164-0.145-0.348-0.145-0.553s0.048-0.388 0.145-0.55c0.098-0.164 0.232-0.291 0.402-0.381 0.171-0.093 0.364-0.139 0.576-0.139 0.179 0 0.341 0.032 0.485 0.095 0.146 0.063 0.268 0.154 0.366 0.272l-0.307 0.284c-0.14-0.162-0.313-0.242-0.52-0.242-0.128 0-0.242 0.029-0.343 0.086-0.101 0.055-0.179 0.133-0.236 0.233-0.055 0.101-0.083 0.215-0.083 0.343s0.028 0.242 0.083 0.343c0.057 0.101 0.136 0.179 0.236 0.236 0.101 0.055 0.215 0.083 0.343 0.083 0.207 0 0.38-0.082 0.52-0.245l0.307 0.284c-0.099 0.12-0.221 0.212-0.366 0.275s-0.308 0.095-0.488 0.095z"></path>
<path fill="#fff" style="fill: var(--color2, #fff)" d="M18.741 26.43c-0.215 0-0.409-0.046-0.582-0.139-0.171-0.093-0.306-0.22-0.405-0.381-0.097-0.164-0.145-0.347-0.145-0.55s0.048-0.385 0.145-0.547c0.099-0.164 0.233-0.292 0.405-0.384 0.173-0.093 0.367-0.139 0.582-0.139s0.408 0.046 0.579 0.139c0.171 0.093 0.306 0.221 0.405 0.384 0.099 0.162 0.148 0.344 0.148 0.547s-0.049 0.386-0.148 0.55c-0.099 0.162-0.233 0.289-0.405 0.381s-0.365 0.139-0.579 0.139zM18.741 26.023c0.122 0 0.232-0.028 0.331-0.083 0.099-0.057 0.175-0.136 0.231-0.236 0.057-0.101 0.086-0.215 0.086-0.343s-0.029-0.242-0.086-0.343c-0.055-0.101-0.132-0.178-0.231-0.233-0.099-0.057-0.209-0.086-0.331-0.086s-0.233 0.029-0.331 0.086c-0.098 0.055-0.176 0.133-0.233 0.233-0.055 0.101-0.083 0.215-0.083 0.343s0.028 0.242 0.083 0.343c0.057 0.101 0.135 0.179 0.233 0.236 0.099 0.055 0.209 0.083 0.331 0.083z"></path>
<path fill="#fff" style="fill: var(--color2, #fff)" d="M23.594 26.395l-0.003-1.241-0.609 1.023h-0.216l-0.606-0.996v1.215h-0.449v-2.069h0.396l0.774 1.286 0.763-1.286h0.393l0.006 2.069h-0.449z"></path>
<path fill="#fff" style="fill: var(--color2, #fff)" d="M26.907 24.326c0.183 0 0.342 0.031 0.476 0.092 0.136 0.061 0.24 0.148 0.313 0.26s0.109 0.245 0.109 0.399c0 0.152-0.037 0.285-0.109 0.399-0.073 0.112-0.177 0.199-0.313 0.26-0.134 0.059-0.293 0.089-0.476 0.089h-0.417v0.57h-0.479v-2.069h0.896zM26.881 25.434c0.144 0 0.253-0.031 0.328-0.092 0.075-0.063 0.112-0.152 0.112-0.266 0-0.116-0.037-0.205-0.112-0.266-0.075-0.063-0.184-0.095-0.328-0.095h-0.39v0.718h0.39z"></path>
<path fill="#fff" style="fill: var(--color2, #fff)" d="M30.884 25.952h-0.961l-0.183 0.443h-0.491l0.922-2.069h0.473l0.925 2.069h-0.502l-0.183-0.443zM30.733 25.588l-0.328-0.792-0.328 0.792h0.656z"></path>
<path fill="#fff" style="fill: var(--color2, #fff)" d="M35.16 24.326v2.069h-0.393l-1.031-1.256v1.256h-0.473v-2.069h0.396l1.029 1.256v-1.256h0.473z"></path>
<path fill="#fff" style="fill: var(--color2, #fff)" d="M38.12 25.662v0.733h-0.479v-0.739l-0.801-1.33h0.508l0.553 0.919 0.553-0.919h0.47l-0.804 1.336z"></path>
<path fill="#f0145a" style="fill: var(--color1, #f0145a)" d="M45.883 8.421h1.809l-4.713 14.597h-1.809l4.713-14.597z"></path>
<path fill="#fff" style="fill: var(--color2, #fff)" d="M52.912 19.144c-0.554 0-0.981-0.15-1.28-0.449s-0.449-0.722-0.449-1.269v-5.535h0.797v5.491c0 0.344 0.086 0.61 0.258 0.797 0.18 0.187 0.434 0.281 0.764 0.281 0.352 0 0.644-0.101 0.876-0.303l0.281 0.573c-0.157 0.142-0.348 0.247-0.573 0.314-0.217 0.067-0.442 0.101-0.674 0.101zM50.128 13.855v-0.662h3.649v0.662h-3.649zM57.905 19.144c-0.614 0-1.153-0.127-1.617-0.382-0.464-0.262-0.827-0.618-1.089-1.067-0.262-0.457-0.393-0.977-0.393-1.561s0.123-1.1 0.371-1.549c0.254-0.449 0.599-0.801 1.033-1.055 0.442-0.262 0.936-0.393 1.482-0.393 0.554 0 1.044 0.127 1.471 0.382 0.434 0.247 0.775 0.599 1.022 1.055 0.247 0.449 0.371 0.969 0.371 1.561 0 0.037-0.004 0.079-0.011 0.123 0 0.037 0 0.079 0 0.123h-5.131v-0.595h4.705l-0.314 0.236c0-0.427-0.094-0.805-0.281-1.134-0.18-0.337-0.427-0.599-0.741-0.786s-0.678-0.281-1.089-0.281c-0.404 0-0.767 0.094-1.089 0.281s-0.573 0.449-0.752 0.786c-0.18 0.337-0.269 0.722-0.269 1.156v0.123c0 0.449 0.097 0.846 0.292 1.19 0.202 0.337 0.479 0.603 0.831 0.797 0.359 0.187 0.767 0.281 1.224 0.281 0.359 0 0.692-0.064 0.999-0.191 0.314-0.127 0.584-0.322 0.808-0.584l0.449 0.517c-0.262 0.314-0.591 0.554-0.988 0.719-0.389 0.165-0.82 0.247-1.291 0.247zM65.707 19.088v-1.302l-0.034-0.213v-2.178c0-0.502-0.142-0.887-0.427-1.156-0.277-0.269-0.692-0.404-1.246-0.404-0.382 0-0.744 0.064-1.089 0.191s-0.636 0.296-0.876 0.505l-0.359-0.595c0.3-0.254 0.659-0.449 1.078-0.584 0.419-0.142 0.861-0.213 1.325-0.213 0.763 0 1.351 0.191 1.763 0.573 0.419 0.374 0.629 0.947 0.629 1.718v3.66h-0.763zM63.675 19.144c-0.441 0-0.827-0.071-1.157-0.213-0.322-0.15-0.569-0.352-0.741-0.606-0.172-0.262-0.258-0.561-0.258-0.898 0-0.307 0.071-0.584 0.213-0.831 0.15-0.254 0.39-0.457 0.719-0.606 0.337-0.157 0.786-0.236 1.347-0.236h2.032v0.595h-2.010c-0.569 0-0.966 0.101-1.19 0.303-0.217 0.202-0.326 0.453-0.326 0.752 0 0.337 0.131 0.606 0.393 0.808s0.629 0.303 1.1 0.303c0.449 0 0.835-0.101 1.156-0.303 0.33-0.21 0.569-0.509 0.719-0.898l0.18 0.55c-0.149 0.389-0.412 0.7-0.786 0.932-0.367 0.232-0.831 0.348-1.392 0.348zM76.002 13.137c0.479 0 0.895 0.094 1.246 0.281 0.359 0.18 0.637 0.457 0.831 0.831 0.202 0.374 0.303 0.846 0.303 1.415v3.425h-0.797v-3.346c0-0.621-0.149-1.089-0.449-1.403-0.292-0.322-0.707-0.483-1.246-0.483-0.404 0-0.756 0.086-1.055 0.258-0.292 0.165-0.52 0.408-0.685 0.73-0.157 0.314-0.236 0.696-0.236 1.145v3.099h-0.797v-3.346c0-0.621-0.149-1.089-0.449-1.403-0.299-0.322-0.719-0.483-1.258-0.483-0.396 0-0.744 0.086-1.044 0.258-0.299 0.165-0.531 0.408-0.696 0.73-0.157 0.314-0.236 0.696-0.236 1.145v3.099h-0.797v-5.895h0.763v1.594l-0.124-0.281c0.18-0.427 0.468-0.76 0.865-0.999 0.404-0.247 0.88-0.371 1.426-0.371 0.577 0 1.067 0.146 1.471 0.438 0.404 0.284 0.666 0.715 0.786 1.291l-0.314-0.123c0.172-0.479 0.475-0.865 0.909-1.156 0.442-0.299 0.97-0.449 1.583-0.449z"></path>
</symbol>
</defs>
</svg>
