<svg aria-hidden="true" style="position: absolute; width: 0; height: 0; overflow: hidden;" version="1.1" xmlns="http://www.w3.org/2000/svg" xmlns:xlink="http://www.w3.org/1999/xlink">
<defs>
<symbol id="icon-arrow" viewBox="0 0 30 32">
<path fill="none" stroke="#24a3ff" style="stroke: var(--color1, #24a3ff)" stroke-linejoin="miter" stroke-linecap="butt" stroke-miterlimit="4" stroke-width="4.9231" d="M8.615 4.923l11.077 11.077-11.077 11.077"></path>
</symbol>
<symbol id="icon-facebook-footer" viewBox="0 0 33 32">
<path fill="#24a3ff" style="fill: var(--color1, #24a3ff)" d="M32.421 16.098c0-8.891-7.163-16.098-16-16.098s-16 7.207-16 16.098c0 8.035 5.851 14.695 13.5 15.902v-11.249h-4.062v-4.653h4.062v-3.547c0-4.035 2.389-6.263 6.043-6.263 1.751 0 3.582 0.314 3.582 0.314v3.962h-2.018c-1.988 0-2.607 1.241-2.607 2.514v3.020h4.437l-0.709 4.653h-3.728v11.249c7.649-1.208 13.5-7.867 13.5-15.902z"></path>
</symbol>
<symbol id="icon-facebook-header" viewBox="0 0 31 32">
<path  d="M30.72 16.094c0-8.535-6.877-15.454-15.36-15.454s-15.36 6.919-15.36 15.454c0 7.714 5.617 14.107 12.96 15.266v-10.799h-3.9v-4.467h3.9v-3.405c0-3.873 2.293-6.013 5.802-6.013 1.68 0 3.438 0.302 3.438 0.302v3.803h-1.937c-1.908 0-2.503 1.191-2.503 2.413v2.899h4.26l-0.681 4.467h-3.579v10.799c7.343-1.159 12.96-7.553 12.96-15.266z"></path>
</symbol>
<symbol id="icon-hamburger" viewBox="0 0 31 32">
<path fill="none" stroke="#fff" style="stroke: var(--color2, #fff)" stroke-linejoin="miter" stroke-linecap="butt" stroke-miterlimit="4" stroke-width="1.9394" d="M6.788 10.182h17.455"></path>
<path fill="none" stroke="#fff" style="stroke: var(--color2, #fff)" stroke-linejoin="miter" stroke-linecap="butt" stroke-miterlimit="4" stroke-width="1.9394" d="M6.788 16h17.455"></path>
<path fill="none" stroke="#fff" style="stroke: var(--color2, #fff)" stroke-linejoin="miter" stroke-linecap="butt" stroke-miterlimit="4" stroke-width="1.9394" d="M6.788 21.818h17.455"></path>
</symbol>
<symbol id="icon-logo" viewBox="0 0 95 32">
<path fill="#f0145a" style="fill: var(--color3, #f0145a)" d="M1.484 8.421h-1.484v10.719h1.484v-3.977c0-0.673 0.167-1.203 0.502-1.577s0.793-0.568 1.36-0.568c0.487 0 0.895 0.179 1.222 0.523 0.327 0.351 0.495 0.792 0.495 1.323v4.283h1.491v-4.283c0-0.987-0.269-1.764-0.808-2.347s-1.244-0.875-2.103-0.875c-0.247 0-0.495 0.030-0.735 0.097-0.247 0.067-0.444 0.142-0.604 0.224s-0.313 0.172-0.451 0.277-0.233 0.179-0.276 0.224c-0.044 0.045-0.080 0.075-0.095 0.097v-4.141z"></path>
<path fill="#fff" style="fill: var(--color2, #fff)" d="M9.873 8.421h-1.53v10.71h1.53v-10.71z"></path>
<path fill="#fff" style="fill: var(--color2, #fff)" d="M18.897 15.994l0.076-0.765c0-1.025-0.337-1.882-1.025-2.57s-1.545-1.025-2.57-1.025-1.912 0.367-2.647 1.102c-0.734 0.734-1.102 1.606-1.102 2.647 0 1.071 0.383 1.989 1.132 2.754s1.652 1.147 2.693 1.147c0.398 0 0.765-0.061 1.132-0.168 0.367-0.122 0.673-0.245 0.887-0.367 0.23-0.138 0.459-0.291 0.658-0.459s0.337-0.291 0.398-0.367c0.061-0.076 0.107-0.122 0.138-0.168l-0.994-0.994-0.23 0.291c-0.153 0.184-0.413 0.367-0.78 0.566-0.382 0.199-0.78 0.291-1.209 0.291-0.597 0-1.102-0.184-1.53-0.566s-0.688-0.826-0.765-1.346h5.737zM15.378 12.934c0.566 0 1.025 0.168 1.408 0.49 0.367 0.337 0.597 0.75 0.689 1.27h-4.253c0.138-0.52 0.382-0.933 0.765-1.27 0.367-0.321 0.841-0.49 1.392-0.49z"></path>
<path fill="#fff" style="fill: var(--color2, #fff)" d="M26.032 18.687c0 0.673-0.199 1.224-0.612 1.652-0.398 0.413-0.903 0.627-1.53 0.627-0.275 0-0.551-0.046-0.811-0.122s-0.459-0.168-0.627-0.275c-0.168-0.107-0.321-0.214-0.474-0.352-0.138-0.138-0.229-0.23-0.275-0.275s-0.077-0.092-0.107-0.122l-0.994 0.994 0.122 0.153c0.077 0.107 0.214 0.245 0.398 0.398 0.184 0.138 0.398 0.291 0.643 0.444 0.245 0.138 0.551 0.26 0.933 0.367s0.78 0.168 1.193 0.168c1.040 0 1.897-0.352 2.616-1.056 0.704-0.719 1.056-1.576 1.056-2.616v-6.885h-1.53v0.765l-0.26-0.229c-0.168-0.153-0.428-0.306-0.796-0.459s-0.765-0.229-1.163-0.229c-0.933 0-1.729 0.352-2.417 1.071s-1.025 1.576-1.025 2.601c0 1.025 0.337 1.882 1.025 2.601s1.484 1.071 2.417 1.071c0.26 0 0.505-0.031 0.765-0.092 0.245-0.076 0.444-0.153 0.612-0.23s0.321-0.168 0.459-0.275c0.138-0.107 0.245-0.184 0.275-0.214l0.107-0.107v0.627zM21.901 15.306c0-0.643 0.199-1.178 0.612-1.622s0.903-0.673 1.453-0.673c0.551 0 1.040 0.229 1.453 0.673 0.398 0.444 0.612 0.979 0.612 1.622s-0.214 1.178-0.612 1.622c-0.413 0.444-0.903 0.673-1.453 0.673s-1.040-0.23-1.453-0.673-0.612-0.979-0.612-1.622z"></path>
<path fill="#fff" style="fill: var(--color2, #fff)" d="M35.548 19.131v-4.743c0-0.78-0.291-1.438-0.857-1.958-0.566-0.536-1.3-0.796-2.203-0.796-0.352 0-0.704 0.046-1.040 0.138-0.337 0.107-0.612 0.214-0.811 0.337s-0.398 0.26-0.581 0.428c-0.184 0.153-0.291 0.26-0.352 0.321-0.046 0.061-0.092 0.107-0.122 0.153l0.994 0.994 0.199-0.26c0.122-0.168 0.337-0.321 0.658-0.49s0.673-0.245 1.056-0.245c0.444 0 0.811 0.138 1.102 0.398s0.428 0.597 0.428 0.979l-2.677 0.459c-0.658 0.107-1.193 0.367-1.561 0.78-0.383 0.413-0.581 0.918-0.581 1.515 0 0.566 0.245 1.056 0.734 1.484 0.505 0.444 1.117 0.658 1.867 0.658 0.26 0 0.505-0.031 0.75-0.107 0.26-0.061 0.459-0.138 0.627-0.214s0.321-0.168 0.459-0.275c0.138-0.107 0.23-0.184 0.291-0.214 0.046-0.046 0.076-0.092 0.092-0.107v0.765h1.53zM32.029 17.907c-0.398 0-0.719-0.092-0.949-0.275-0.245-0.184-0.352-0.398-0.352-0.643 0-0.26 0.077-0.49 0.245-0.658s0.398-0.291 0.673-0.337l2.371-0.382v0.153c0 0.689-0.168 1.209-0.52 1.591-0.352 0.367-0.842 0.551-1.469 0.551z"></path>
<path fill="#fff" style="fill: var(--color2, #fff)" d="M38.924 8.421h-1.53v10.71h1.53v-10.71z"></path>
<path fill="#fff" style="fill: var(--color2, #fff)" d="M0 24.326h0.479v1.679h1.037v0.39h-1.516v-2.069z"></path>
<path fill="#fff" style="fill: var(--color2, #fff)" d="M4.641 25.952h-0.961l-0.183 0.443h-0.491l0.922-2.069h0.473l0.925 2.069h-0.502l-0.183-0.443zM4.491 25.588l-0.328-0.792-0.328 0.792h0.656z"></path>
<path fill="#fff" style="fill: var(--color2, #fff)" d="M10.034 24.326l-0.677 2.069h-0.514l-0.455-1.401-0.47 1.401h-0.511l-0.68-2.069h0.497l0.467 1.454 0.488-1.454h0.443l0.473 1.466 0.482-1.466h0.458z"></path>
<path fill="#fff" style="fill: var(--color2, #fff)" d="M15.127 26.43c-0.211 0-0.402-0.045-0.573-0.136-0.169-0.093-0.303-0.22-0.402-0.381-0.097-0.164-0.145-0.348-0.145-0.553s0.048-0.388 0.145-0.55c0.098-0.164 0.232-0.291 0.402-0.381 0.171-0.093 0.364-0.139 0.576-0.139 0.179 0 0.341 0.032 0.485 0.095 0.146 0.063 0.268 0.154 0.366 0.272l-0.307 0.284c-0.14-0.162-0.313-0.242-0.52-0.242-0.128 0-0.242 0.029-0.343 0.086-0.101 0.055-0.179 0.133-0.236 0.233-0.055 0.101-0.083 0.215-0.083 0.343s0.028 0.242 0.083 0.343c0.057 0.101 0.136 0.179 0.236 0.236 0.101 0.055 0.215 0.083 0.343 0.083 0.207 0 0.38-0.082 0.52-0.245l0.307 0.284c-0.099 0.12-0.221 0.212-0.366 0.275s-0.308 0.095-0.488 0.095z"></path>
<path fill="#fff" style="fill: var(--color2, #fff)" d="M18.741 26.43c-0.215 0-0.409-0.046-0.582-0.139-0.171-0.093-0.306-0.22-0.405-0.381-0.097-0.164-0.145-0.347-0.145-0.55s0.048-0.385 0.145-0.547c0.099-0.164 0.233-0.292 0.405-0.384 0.173-0.093 0.367-0.139 0.582-0.139s0.408 0.046 0.579 0.139c0.171 0.093 0.306 0.221 0.405 0.384 0.099 0.162 0.148 0.344 0.148 0.547s-0.049 0.386-0.148 0.55c-0.099 0.162-0.233 0.289-0.405 0.381s-0.365 0.139-0.579 0.139zM18.741 26.023c0.122 0 0.232-0.028 0.331-0.083 0.099-0.057 0.175-0.136 0.231-0.236 0.057-0.101 0.086-0.215 0.086-0.343s-0.029-0.242-0.086-0.343c-0.055-0.101-0.132-0.178-0.231-0.233-0.099-0.057-0.209-0.086-0.331-0.086s-0.233 0.029-0.331 0.086c-0.098 0.055-0.176 0.133-0.233 0.233-0.055 0.101-0.083 0.215-0.083 0.343s0.028 0.242 0.083 0.343c0.057 0.101 0.135 0.179 0.233 0.236 0.099 0.055 0.209 0.083 0.331 0.083z"></path>
<path fill="#fff" style="fill: var(--color2, #fff)" d="M23.594 26.395l-0.003-1.241-0.609 1.023h-0.216l-0.606-0.996v1.215h-0.449v-2.069h0.396l0.774 1.286 0.763-1.286h0.393l0.006 2.069h-0.449z"></path>
<path fill="#fff" style="fill: var(--color2, #fff)" d="M26.907 24.326c0.183 0 0.342 0.031 0.476 0.092 0.136 0.061 0.24 0.148 0.313 0.26s0.109 0.245 0.109 0.399c0 0.152-0.037 0.285-0.109 0.399-0.073 0.112-0.177 0.199-0.313 0.26-0.134 0.059-0.293 0.089-0.476 0.089h-0.417v0.57h-0.479v-2.069h0.896zM26.881 25.434c0.144 0 0.253-0.031 0.328-0.092 0.075-0.063 0.112-0.152 0.112-0.266 0-0.116-0.037-0.205-0.112-0.266-0.075-0.063-0.184-0.095-0.328-0.095h-0.39v0.718h0.39z"></path>
<path fill="#fff" style="fill: var(--color2, #fff)" d="M30.884 25.952h-0.961l-0.183 0.443h-0.491l0.922-2.069h0.473l0.925 2.069h-0.502l-0.183-0.443zM30.733 25.588l-0.328-0.792-0.328 0.792h0.656z"></path>
<path fill="#fff" style="fill: var(--color2, #fff)" d="M35.16 24.326v2.069h-0.393l-1.031-1.256v1.256h-0.473v-2.069h0.396l1.029 1.256v-1.256h0.473z"></path>
<path fill="#fff" style="fill: var(--color2, #fff)" d="M38.12 25.662v0.733h-0.479v-0.739l-0.801-1.33h0.508l0.553 0.919 0.553-0.919h0.47l-0.804 1.336z"></path>
<path fill="#f0145a" style="fill: var(--color3, #f0145a)" d="M45.883 8.421h1.809l-4.713 14.597h-1.809l4.713-14.597z"></path>
<path fill="#fff" style="fill: var(--color2, #fff)" d="M52.632 19.144c-0.487 0-0.947-0.067-1.381-0.202-0.434-0.142-0.775-0.318-1.022-0.528l0.359-0.629c0.24 0.18 0.546 0.337 0.921 0.472 0.374 0.127 0.767 0.191 1.179 0.191 0.561 0 0.966-0.086 1.213-0.258 0.247-0.18 0.371-0.415 0.371-0.707 0-0.217-0.071-0.386-0.213-0.505-0.135-0.127-0.314-0.221-0.539-0.281-0.225-0.067-0.475-0.123-0.752-0.168s-0.554-0.097-0.831-0.157c-0.269-0.060-0.517-0.146-0.741-0.258-0.225-0.12-0.408-0.281-0.55-0.483-0.135-0.202-0.202-0.472-0.202-0.808 0-0.322 0.090-0.61 0.269-0.865s0.442-0.453 0.786-0.595c0.352-0.15 0.779-0.225 1.28-0.225 0.382 0 0.764 0.052 1.145 0.157 0.382 0.097 0.696 0.228 0.943 0.393l-0.348 0.64c-0.262-0.18-0.543-0.307-0.842-0.382-0.299-0.082-0.599-0.123-0.898-0.123-0.531 0-0.924 0.094-1.179 0.281-0.247 0.18-0.371 0.412-0.371 0.696 0 0.225 0.067 0.4 0.202 0.528 0.142 0.127 0.326 0.228 0.55 0.303 0.232 0.067 0.483 0.123 0.752 0.168 0.277 0.045 0.55 0.101 0.82 0.168 0.277 0.060 0.528 0.146 0.752 0.258 0.232 0.105 0.415 0.258 0.55 0.46 0.142 0.195 0.213 0.453 0.213 0.775 0 0.344-0.097 0.644-0.292 0.898-0.187 0.247-0.464 0.442-0.831 0.584-0.359 0.135-0.797 0.202-1.314 0.202zM59.035 19.144c-0.614 0-1.153-0.127-1.617-0.382-0.464-0.262-0.828-0.618-1.089-1.067-0.262-0.457-0.393-0.977-0.393-1.561s0.123-1.1 0.371-1.549c0.254-0.449 0.598-0.801 1.033-1.055 0.441-0.262 0.935-0.393 1.482-0.393 0.554 0 1.044 0.127 1.471 0.382 0.434 0.247 0.775 0.599 1.022 1.055 0.247 0.449 0.371 0.969 0.371 1.561 0 0.037-0.004 0.079-0.011 0.123 0 0.037 0 0.079 0 0.123h-5.131v-0.595h4.705l-0.314 0.236c0-0.427-0.094-0.805-0.281-1.134-0.18-0.337-0.427-0.599-0.741-0.786s-0.678-0.281-1.089-0.281c-0.404 0-0.767 0.094-1.089 0.281s-0.573 0.449-0.752 0.786-0.269 0.722-0.269 1.156v0.123c0 0.449 0.097 0.846 0.292 1.19 0.202 0.337 0.479 0.603 0.831 0.797 0.359 0.187 0.767 0.281 1.224 0.281 0.359 0 0.692-0.064 0.999-0.191 0.314-0.127 0.584-0.322 0.808-0.584l0.449 0.517c-0.262 0.314-0.592 0.554-0.988 0.719-0.39 0.165-0.82 0.247-1.291 0.247zM63.307 19.088v-5.895h0.764v1.606l-0.079-0.281c0.164-0.449 0.442-0.79 0.831-1.022 0.389-0.24 0.872-0.359 1.448-0.359v0.775c-0.030 0-0.060 0-0.090 0-0.030-0.007-0.060-0.011-0.090-0.011-0.621 0-1.108 0.191-1.46 0.573-0.352 0.374-0.528 0.909-0.528 1.606v3.009h-0.797zM69.494 19.088l-2.616-5.895h0.831l2.403 5.468h-0.393l2.436-5.468h0.786l-2.627 5.895h-0.82zM74.064 19.088v-5.895h0.797v5.895h-0.797zM74.468 11.891c-0.165 0-0.303-0.056-0.415-0.168s-0.168-0.247-0.168-0.404c0-0.157 0.056-0.288 0.168-0.393 0.112-0.112 0.251-0.168 0.415-0.168s0.303 0.052 0.415 0.157 0.168 0.236 0.168 0.393c0 0.165-0.056 0.303-0.168 0.415-0.104 0.112-0.243 0.168-0.415 0.168zM79.527 19.144c-0.584 0-1.108-0.127-1.572-0.382-0.456-0.262-0.816-0.618-1.078-1.067-0.262-0.457-0.393-0.977-0.393-1.561 0-0.591 0.131-1.112 0.393-1.561s0.621-0.801 1.078-1.055c0.464-0.254 0.988-0.382 1.572-0.382 0.502 0 0.954 0.097 1.359 0.292s0.723 0.487 0.954 0.876l-0.595 0.404c-0.202-0.299-0.453-0.52-0.752-0.662s-0.625-0.213-0.977-0.213c-0.419 0-0.797 0.097-1.134 0.292-0.337 0.187-0.602 0.453-0.797 0.797s-0.292 0.749-0.292 1.213 0.098 0.868 0.292 1.213c0.195 0.344 0.46 0.614 0.797 0.808 0.337 0.187 0.715 0.281 1.134 0.281 0.352 0 0.678-0.071 0.977-0.213s0.55-0.359 0.752-0.651l0.595 0.404c-0.232 0.382-0.55 0.674-0.954 0.876-0.404 0.195-0.857 0.292-1.359 0.292zM85.811 19.144c-0.614 0-1.153-0.127-1.617-0.382-0.464-0.262-0.827-0.618-1.089-1.067-0.262-0.457-0.393-0.977-0.393-1.561s0.124-1.1 0.371-1.549c0.254-0.449 0.599-0.801 1.033-1.055 0.442-0.262 0.936-0.393 1.482-0.393 0.554 0 1.044 0.127 1.471 0.382 0.434 0.247 0.775 0.599 1.022 1.055 0.247 0.449 0.371 0.969 0.371 1.561 0 0.037-0.004 0.079-0.011 0.123 0 0.037 0 0.079 0 0.123h-5.131v-0.595h4.705l-0.314 0.236c0-0.427-0.094-0.805-0.281-1.134-0.18-0.337-0.427-0.599-0.741-0.786s-0.678-0.281-1.089-0.281c-0.404 0-0.767 0.094-1.089 0.281s-0.573 0.449-0.752 0.786c-0.18 0.337-0.269 0.722-0.269 1.156v0.123c0 0.449 0.097 0.846 0.292 1.19 0.202 0.337 0.479 0.603 0.831 0.797 0.359 0.187 0.767 0.281 1.224 0.281 0.359 0 0.692-0.064 0.999-0.191 0.314-0.127 0.584-0.322 0.808-0.584l0.449 0.517c-0.262 0.314-0.591 0.554-0.988 0.719-0.389 0.165-0.82 0.247-1.291 0.247zM91.667 19.144c-0.486 0-0.947-0.067-1.381-0.202-0.434-0.142-0.775-0.318-1.022-0.528l0.359-0.629c0.24 0.18 0.547 0.337 0.921 0.472 0.374 0.127 0.767 0.191 1.179 0.191 0.561 0 0.966-0.086 1.213-0.258 0.247-0.18 0.371-0.415 0.371-0.707 0-0.217-0.071-0.386-0.213-0.505-0.135-0.127-0.314-0.221-0.539-0.281-0.225-0.067-0.475-0.123-0.752-0.168s-0.554-0.097-0.831-0.157c-0.269-0.060-0.516-0.146-0.741-0.258-0.225-0.12-0.408-0.281-0.55-0.483-0.135-0.202-0.202-0.472-0.202-0.808 0-0.322 0.090-0.61 0.269-0.865s0.442-0.453 0.786-0.595c0.352-0.15 0.779-0.225 1.28-0.225 0.382 0 0.763 0.052 1.145 0.157 0.382 0.097 0.696 0.228 0.943 0.393l-0.348 0.64c-0.262-0.18-0.542-0.307-0.842-0.382-0.299-0.082-0.598-0.123-0.898-0.123-0.531 0-0.924 0.094-1.179 0.281-0.247 0.18-0.371 0.412-0.371 0.696 0 0.225 0.067 0.4 0.202 0.528 0.143 0.127 0.326 0.228 0.55 0.303 0.232 0.067 0.483 0.123 0.752 0.168 0.277 0.045 0.55 0.101 0.82 0.168 0.277 0.060 0.528 0.146 0.752 0.258 0.232 0.105 0.415 0.258 0.55 0.46 0.143 0.195 0.213 0.453 0.213 0.775 0 0.344-0.097 0.644-0.292 0.898-0.187 0.247-0.464 0.442-0.831 0.584-0.359 0.135-0.797 0.202-1.314 0.202z"></path>
</symbol>
<symbol id="icon-logoBig" viewBox="0 0 69 32">
<path fill="#f0145a" style="fill: var(--color3, #f0145a)" d="M2.644 0h-2.644v19.093h2.644v-7.083c0-1.198 0.298-2.144 0.894-2.809s1.413-1.012 2.423-1.012c0.868 0 1.594 0.32 2.177 0.932 0.583 0.626 0.881 1.411 0.881 2.357v7.629h2.657v-7.629c0-1.758-0.479-3.142-1.438-4.181s-2.216-1.558-3.745-1.558c-0.441 0-0.881 0.053-1.309 0.173-0.441 0.12-0.79 0.253-1.076 0.399s-0.557 0.306-0.803 0.493c-0.246 0.186-0.415 0.32-0.492 0.399s-0.143 0.133-0.168 0.173v-7.376z"></path>
<path fill="#fff" style="fill: var(--color2, #fff)" d="M17.585 0h-2.725v19.077h2.725v-19.077z"></path>
<path fill="#fff" style="fill: var(--color2, #fff)" d="M33.66 13.49l0.136-1.363c0-1.826-0.6-3.352-1.826-4.578s-2.753-1.826-4.578-1.826c-1.826 0-3.407 0.654-4.715 1.962s-1.962 2.862-1.962 4.715c0 1.908 0.681 3.543 2.017 4.905s2.943 2.044 4.796 2.044c0.709 0 1.363-0.109 2.017-0.3 0.654-0.218 1.199-0.436 1.581-0.654 0.409-0.245 0.818-0.518 1.172-0.818s0.6-0.518 0.709-0.654 0.191-0.218 0.245-0.3l-1.771-1.771-0.409 0.518c-0.272 0.327-0.736 0.654-1.39 1.008-0.681 0.354-1.39 0.518-2.153 0.518-1.063 0-1.962-0.327-2.725-1.008s-1.226-1.472-1.363-2.398h10.22zM27.391 8.039c1.008 0 1.826 0.3 2.507 0.872 0.654 0.6 1.063 1.335 1.226 2.262h-7.576c0.245-0.927 0.681-1.662 1.363-2.262 0.654-0.572 1.499-0.872 2.48-0.872z"></path>
<path fill="#fff" style="fill: var(--color2, #fff)" d="M46.37 18.286c0 1.199-0.354 2.18-1.090 2.943-0.709 0.736-1.608 1.117-2.725 1.117-0.49 0-0.981-0.082-1.444-0.218s-0.818-0.3-1.117-0.491-0.572-0.382-0.845-0.627c-0.245-0.245-0.409-0.409-0.49-0.491s-0.136-0.164-0.191-0.218l-1.771 1.771 0.218 0.273c0.136 0.191 0.382 0.436 0.709 0.709 0.327 0.245 0.709 0.518 1.145 0.79 0.436 0.245 0.981 0.463 1.662 0.654s1.39 0.3 2.126 0.3c1.853 0 3.379-0.627 4.66-1.88 1.254-1.281 1.88-2.807 1.88-4.66v-12.264h-2.725v1.363l-0.463-0.409c-0.3-0.273-0.763-0.545-1.417-0.818s-1.363-0.409-2.071-0.409c-1.662 0-3.080 0.627-4.306 1.908s-1.826 2.807-1.826 4.633 0.6 3.352 1.826 4.633c1.226 1.281 2.644 1.908 4.306 1.908 0.463 0 0.899-0.055 1.363-0.164 0.436-0.136 0.79-0.273 1.090-0.409s0.572-0.3 0.818-0.491c0.245-0.191 0.436-0.327 0.49-0.381l0.191-0.191v1.117zM39.011 12.264c0-1.145 0.354-2.098 1.090-2.889s1.608-1.199 2.589-1.199c0.981 0 1.853 0.409 2.589 1.199 0.709 0.79 1.090 1.744 1.090 2.889s-0.382 2.098-1.090 2.889c-0.736 0.79-1.608 1.199-2.589 1.199s-1.853-0.409-2.589-1.199c-0.736-0.79-1.090-1.744-1.090-2.889z"></path>
<path fill="#fff" style="fill: var(--color2, #fff)" d="M63.319 19.077v-8.448c0-1.39-0.518-2.562-1.526-3.488-1.008-0.954-2.316-1.417-3.924-1.417-0.627 0-1.253 0.082-1.853 0.245-0.6 0.191-1.090 0.381-1.445 0.6s-0.708 0.463-1.035 0.763c-0.327 0.273-0.518 0.463-0.627 0.572-0.082 0.109-0.164 0.191-0.218 0.273l1.771 1.771 0.354-0.463c0.218-0.3 0.599-0.572 1.172-0.872s1.199-0.436 1.881-0.436c0.79 0 1.444 0.245 1.962 0.709s0.763 1.063 0.763 1.744l-4.769 0.818c-1.172 0.191-2.126 0.654-2.78 1.39-0.681 0.736-1.036 1.635-1.036 2.698 0 1.008 0.436 1.88 1.308 2.643 0.899 0.79 1.989 1.172 3.325 1.172 0.463 0 0.899-0.055 1.335-0.191 0.463-0.109 0.818-0.245 1.117-0.382s0.572-0.3 0.818-0.491c0.245-0.191 0.409-0.327 0.517-0.381 0.082-0.082 0.137-0.164 0.164-0.191v1.363h2.725zM57.051 16.896c-0.708 0-1.281-0.164-1.69-0.491-0.436-0.327-0.627-0.709-0.627-1.145 0-0.463 0.136-0.872 0.436-1.172s0.709-0.518 1.199-0.6l4.224-0.681v0.272c0 1.226-0.3 2.153-0.926 2.834-0.627 0.654-1.499 0.981-2.617 0.981z"></path>
<path fill="#fff" style="fill: var(--color2, #fff)" d="M69.333 0h-2.725v19.077h2.725v-19.077z"></path>
<path fill="#fff" style="fill: var(--color2, #fff)" d="M0 28.33h0.853v2.99h1.848v0.695h-2.701v-3.685z"></path>
<path fill="#fff" style="fill: var(--color2, #fff)" d="M8.268 31.225h-1.711l-0.326 0.79h-0.874l1.643-3.685h0.842l1.648 3.685h-0.895l-0.326-0.79zM7.999 30.578l-0.584-1.411-0.584 1.411h1.169z"></path>
<path fill="#fff" style="fill: var(--color2, #fff)" d="M17.873 28.33l-1.206 3.685h-0.916l-0.811-2.495-0.837 2.495h-0.911l-1.211-3.685h0.884l0.832 2.59 0.869-2.59h0.79l0.842 2.611 0.858-2.611h0.816z"></path>
<path fill="#fff" style="fill: var(--color2, #fff)" d="M26.946 32.078c-0.376 0-0.716-0.081-1.021-0.242-0.302-0.165-0.541-0.391-0.716-0.679-0.172-0.291-0.258-0.619-0.258-0.984s0.086-0.691 0.258-0.979c0.175-0.291 0.414-0.518 0.716-0.679 0.305-0.165 0.648-0.247 1.027-0.247 0.319 0 0.607 0.056 0.863 0.168 0.26 0.112 0.477 0.274 0.653 0.484l-0.548 0.505c-0.249-0.288-0.558-0.432-0.927-0.432-0.228 0-0.432 0.051-0.611 0.153-0.179 0.098-0.319 0.237-0.421 0.416-0.098 0.179-0.147 0.383-0.147 0.611s0.049 0.432 0.147 0.611c0.102 0.179 0.242 0.319 0.421 0.421 0.179 0.098 0.383 0.147 0.611 0.147 0.369 0 0.677-0.146 0.927-0.437l0.548 0.505c-0.175 0.214-0.393 0.377-0.653 0.49s-0.549 0.168-0.869 0.168z"></path>
<path fill="#fff" style="fill: var(--color2, #fff)" d="M33.383 32.078c-0.383 0-0.728-0.082-1.037-0.247-0.305-0.165-0.546-0.391-0.721-0.679-0.172-0.291-0.258-0.618-0.258-0.979s0.086-0.686 0.258-0.974c0.175-0.291 0.416-0.519 0.721-0.684 0.309-0.165 0.655-0.247 1.037-0.247s0.727 0.082 1.032 0.247c0.305 0.165 0.546 0.393 0.721 0.684 0.176 0.288 0.263 0.612 0.263 0.974s-0.088 0.688-0.263 0.979c-0.175 0.288-0.416 0.514-0.721 0.679s-0.649 0.247-1.032 0.247zM33.383 31.352c0.218 0 0.414-0.049 0.59-0.147 0.175-0.102 0.312-0.242 0.411-0.421 0.102-0.179 0.153-0.383 0.153-0.611s-0.051-0.432-0.153-0.611c-0.098-0.179-0.235-0.318-0.411-0.416-0.176-0.102-0.372-0.153-0.59-0.153s-0.414 0.051-0.59 0.153c-0.175 0.098-0.314 0.237-0.416 0.416-0.098 0.179-0.147 0.383-0.147 0.611s0.049 0.432 0.147 0.611c0.102 0.179 0.24 0.319 0.416 0.421 0.176 0.098 0.372 0.147 0.59 0.147z"></path>
<path fill="#fff" style="fill: var(--color2, #fff)" d="M42.026 32.015l-0.005-2.211-1.085 1.822h-0.384l-1.079-1.774v2.164h-0.8v-3.685h0.705l1.379 2.29 1.358-2.29h0.7l0.011 3.685h-0.8z"></path>
<path fill="#fff" style="fill: var(--color2, #fff)" d="M47.928 28.33c0.326 0 0.609 0.054 0.848 0.163 0.242 0.109 0.428 0.263 0.558 0.463s0.195 0.437 0.195 0.711c0 0.27-0.065 0.507-0.195 0.711-0.13 0.2-0.316 0.354-0.558 0.463-0.239 0.105-0.521 0.158-0.848 0.158h-0.742v1.016h-0.853v-3.685h1.595zM47.881 30.304c0.256 0 0.451-0.054 0.584-0.163 0.133-0.112 0.2-0.27 0.2-0.474 0-0.207-0.067-0.365-0.2-0.474-0.133-0.112-0.328-0.168-0.584-0.168h-0.695v1.279h0.695z"></path>
<path fill="#fff" style="fill: var(--color2, #fff)" d="M55.012 31.225h-1.711l-0.326 0.79h-0.874l1.643-3.685h0.842l1.648 3.685h-0.895l-0.326-0.79zM54.743 30.578l-0.584-1.411-0.585 1.411h1.169z"></path>
<path fill="#fff" style="fill: var(--color2, #fff)" d="M62.628 28.33v3.685h-0.7l-1.837-2.237v2.237h-0.843v-3.685h0.706l1.832 2.237v-2.237h0.843z"></path>
<path fill="#fff" style="fill: var(--color2, #fff)" d="M67.901 30.709v1.306h-0.853v-1.316l-1.427-2.369h0.906l0.985 1.637 0.984-1.637h0.837l-1.432 2.38z"></path>
</symbol>
<symbol id="icon-scroll" viewBox="0 0 32 32">
<path fill="none" opacity="0.5" stroke="#fff" style="stroke: var(--color2, #fff)" stroke-linejoin="miter" stroke-linecap="butt" stroke-miterlimit="4" stroke-width="1.5238" d="M31.238 16c0 8.416-6.822 15.238-15.238 15.238s-15.238-6.822-15.238-15.238c0-8.416 6.822-15.238 15.238-15.238s15.238 6.822 15.238 15.238z"></path>
<path fill="none" stroke="#fff" style="stroke: var(--color2, #fff)" stroke-linejoin="miter" stroke-linecap="butt" stroke-miterlimit="4" stroke-width="1.5238" d="M9.143 13.714l6.857 6.857 6.857-6.857"></path>
</symbol>
</defs>
</svg>
